/* XPM */
static char * C:\Users\nakam\Downloads\Textures\Industrial\CROSSCUBE_xpm[] = {
"32 32 7 1",
" 	c None",
".	c #20201A",
"+	c #6E6F4E",
"@	c #464A3A",
"#	c #323226",
"$	c #22161A",
"%	c #C1BF13",
"................................",
".+++++++++@++++++++@@@#@@@#@@@@@",
".++@+@+@@@@@@@@@@@##############",
".+@#+#+#@#@@@@##################",
".+@#+#+#@#######################",
".+@#+#@#########################",
".+@#@#@#########################",
".+@#@###########################",
".+@#@###########################",
".+##@###########################",
".+##############################",
".+##############################",
".+##############################",
".+##############################",
".+##############################",
".+##############################",
".+##############################",
".+##############################",
".+##############################",
".+##############################",
".+##############################",
".+##############################",
".@##############################",
".@##############################",
".#@@#########################@@#",
".#+.#########################+.#",
".#..#########################..#",
".###############################",
"................................",
"$$%%%%$$$$%%%%$$$$%%%%$$$$%%%%$$",
"$$$%%%%$$$$%%%%$$$$%%%%$$$$%%%%$",
"$$$$%%%%$$$$%%%%$$$$%%%%$$$$%%%%"};
