/* XPM */
static char * C:\Users\nakam\Downloads\Textures\Industrial\METALTILE_xpm[] = {
"32 32 6 1",
" 	c None",
".	c #121615",
"+	c #68817F",
"@	c #97B6B4",
"#	c #313C3B",
"$	c #1D2524",
"................................",
"++@@@@@@@@@@++#.$$$$$$$$$$$$$$$.",
"+##############.................",
"+##############.$$$$$$$$$$$$$$$.",
"+##############.................",
"+##############.$$$$$$$$$$$$$$$.",
"+##############.................",
"+##############.$$$$$$$$$$$$$$$.",
"+##############.................",
"+##############.$$$$$$$$$$$$$$$.",
"+##############.................",
"+##############.$$$$$$$$$$$$$$$.",
"+##############.................",
"+##############.$$$$$$$$$$$$$$$.",
"+##############.................",
"+##############.++@@@@@@@@@@++#.",
"+#+.########+.#.+##############.",
"##..########..#.+##############.",
"................+##############.",
"$$$$$$$$$$$$$$$.+##############.",
"................+##############.",
"$$$$$$$$$$$$$$$.+##############.",
"................+##############.",
"$$$$$$$$$$$$$$$.+##############.",
"................+##############.",
"$$$$$$$$$$$$$$$.+##############.",
"................+##############.",
"$$$$$$$$$$$$$$$.+##############.",
"................+##############.",
"$$$$$$$$$$$$$$$.+##############.",
"................+#+.########+.#.",
"$$$$$$$$$$$$$$$.##..########..#."};
