/* XPM */
static char * C:\Users\nakam\Desktop\oilbarrel2_xpm[] = {
"128 128 16 1",
" 	c #000000",
".	c #2E261F",
"+	c #4F4941",
"@	c #3A3226",
"#	c #231B17",
"$	c #1D1313",
"%	c #28211B",
"&	c #766E5D",
"*	c #5E594F",
"=	c #170F0F",
"-	c #3A3A3A",
";	c #434343",
">	c #303030",
",	c #565656",
"'	c #6A6A6A",
")	c #868686",
"                                                                                                                                ",
"                                                                                                                                ",
"                                                                                                                                ",
"                                                                                                                                ",
"                                                                                                                                ",
"                                                                                                                                ",
"                                                                                                                                ",
"                                                                                                                                ",
"                                                                                                                                ",
"                                                                                                                                ",
"                                                                                                                                ",
"                                                                                                                                ",
"                                                                                                                                ",
"                                                                                                                                ",
"                                                                                                                                ",
"                                                                                                                                ",
"                                                                                                                                ",
"                                                                                                                                ",
"                                                                                                                                ",
"                                                                                                                                ",
"                                                                                                                                ",
"                                                                                                                                ",
"                                                                                                                                ",
"                                                                                                                                ",
"                                                                                                                                ",
"                                                                                                                                ",
"                                                                                                                                ",
"                                                                                                                                ",
"                                                                                                                                ",
"                                                                                                                                ",
"                                                                                                                                ",
"                                                                                                                                ",
"                                                                                                                                ",
"                                                                                                                                ",
"                                                                                                                                ",
"                                                                                                                                ",
"                                                                                                                                ",
"                                                                                                                                ",
"                                                                                                                                ",
"                                                                                                                                ",
"                                                                                                                                ",
"                                                                                                                                ",
"                                                                                                                                ",
"                                                                                                                                ",
"                                                                                                                                ",
"                                                                                                                                ",
"                                                                                                                                ",
"                                                                                                                                ",
"                                                                                                                                ",
"                                                                                                                                ",
"                                                                   ...+++++@@@@@@.#$                                            ",
"                                                             %%%@+&&&&*+@@@@@@@...@@@..=                                        ",
"                                                        .%%@+&&&+@...#%%%%%%%%%%%##%.....#                                      ",
"                                                     .@@++++@@....%%%#%%%%%%%%...%%%%#=%###                                     ",
"                                                 ..%@@@@..%%%%%%%%%%%%.......%......%%#$#.#                                     ",
"                                              %.@@@@..%%%%%%%%%%............---;....%%$##.#                                     ",
"                                           .#@@@@..%%%%%%%%..............>;,,',-%@..%$#.@%                                      ",
"                                         %#@@@...%%%%%..........@.@.@.@@;,,'';-%%@@.%@@@.                                       ",
"                                       %#.@..%%%...........@@@@@@@@@@@@.-;;--#%..%%%@@%%=                                       ",
"                                     %..@..%%...........@@@@@@@@++@@@@++==#%.@@%%@++%%===                                       ",
"                                   =%...@%%.......%...@@@@@+++++++++++*++@@@.%..*+@.%#$$$.                                      ",
"                                  ==%..##%........@@@@+++++*****&&&&**@@.%##$@**+@..%#$$$%                                      ",
"                                 =%=%%#%%.....@@@@@++++++**&&&&&&+++.%#$$$.**&@@@@@.%$$$$#                                      ",
"                                 $#=$.#%..@@@@@@++++++**&&&*++@..%####%.&&&&++@++@.%###$$$                                      ",
"                                 $.%=$$%%.....@@@@@@++@.%#####$##.@+**)&&&++@++++@.%$$#$$=                                      ",
"                                  #@.#$$$##$############$#%....+&&&)))*++++**++++@%%$##$$=                                      ",
"                                   #@@@@..............@@+&&&))))&&++++*****+++++@.%$$%#$$=                                      ",
"                                    #%@@++++**+*****&&*************&&&&****++++@@%#$#%$$$=.                                     ",
"                                     #%%...@@@@@+++**&****&))))))&&&&&&***+++@@@.#$$#%#$$=%                                     ",
"                                      ==#%%..@@@@++++***&&&))))))&&&&&***+++@@..#$$#%%#$$=#                                     ",
"                                       =##%..@@@@+++@*****&&)))))&&&&****++@@..%$$##%%#$$=$                                     ",
"                                        =##...@@++++***+**&)))))&&&&*****+@@@%%$$##%%##$$==                                     ",
"                                         =##..@@@+++*+++**&&&)))&&&**++++@@@%%$$$##%%##$===                                     ",
"                                          $#%..@@@++*+++*&&*&))&&&***++++@@.%$$$##%###$$===                                     ",
"                                           ##%.@@@++*+++*&&*&)&&&***++++@@.%$$###%%###$====                                     ",
"                                            #%..@@@+++++*&**&))&&***+++@@.%#$###%%%##$$====$$                                   ",
"                                             ##.@@@@+++++***&))&**+++@@@..#$$##%%#%#$======##$                                  ",
"                                              #..@@@@+@++*+*&))&*+++@@@..##$$#%%###$=====%%..#                                  ",
"                                              =#..@@@+@++*+*&))&*+++@@@..$$$#%%%##$$$=%%%%%%$                                   ",
"                                              ==%%.@@@@++*+*&&)&+++@@@..$$$#####$$$$%%%%##$$                                    ",
"                                             $==#%%@@@@++++**&)&+++@@..$$#$###$$$$...%#$$===                                    ",
"                                            $#$=##%@@@@@+++**&)&++@@@..$#####%%%%%.%#$======                                    ",
"                                            $$.......@@@@+++*&&+++@@@%%%%%........#=========                                    ",
"                                             $$$..@...@@@@++*&&++@@@%%..@@@@@@.##$$$========                                    ",
"                                              $$$.+++++++++++++++********@@@#$$$========#===                                    ",
"                                               $$%%%.@*****&))))))))***@@.##===========#====                                    ",
"                                               =##%%%%..@@+++++@@@......###==$=====$$$##$$==                                    ",
"                                               =$$#%%%.%%%......@@++*&@@.$==$$==$$$$%%%##$==                                    ",
"                                                $$$#%.@+@@++***+++*&*@.$$$$$$==$$$$%.%%##$==.                                   ",
"                                                =$$#%%.@+***&&&&**&&*..$$$#$=$$$$#%@.%%#%$==%                                   ",
"                                                ==$$#%%.@++*&&)&&&&+@.$$$%$$$$$%%.@.%%%##$==#                                   ",
"                                                 ==$$#%%.@@++&))&&*+....%$$#$#%.@...%%%##$==$                                   ",
"                                                 ===$$#%%.@+++&&)&*++@@@%$$$#%.....%%%###$===                                   ",
"                                                #$===$$#%%.@@+*))&&+&++%$$$##%.....%%%###$===                                   ",
"                                               ####$==$$#%%@@@*))&&&*@@%=$###%....%%%%###====                                   ",
"                                              $$##.$$==$#%%.@@*&))&&@@.%=$##%%%...%%%###$====                                   ",
"                                             $=###%%$$$$##%.@@+*&)&&*+..%$$###%%..%%###%$====                                   ",
"                                            ===$#%%@%$$$$%...@@*&)&+..@..=$$###%%%%####$=====                                   ",
"                                            ===$#%%.@%#$$$%..@@@&)&*..%..==$$##########======#                                  ",
"                                           ===$$##%.@*@#$$%%..@@&)&*@%#%%===#$##%#####=======.#                                 ",
"                                           ===$$##%.@@*@##$$.@@@&)&&@.%#======$##$$$$==$$$$%..#                                 ",
"                                          ====$$##%..@@**@$#%@@@*&&&+@%%#===========$$$#.....$                                  ",
"                                          ====$$$##%..@@@*@%%@@@*&&&*@%%%###====$$$%......%$#$                                  ",
"                                          ====$$$###..@@@@*@%%@@+&&&*@@%%#===$$$#%....%$$$$$=                                   ",
"                                         $===$$$$####..@@@@+%%@@+&&&&+@.%#===$$#...%$$=======                                   ",
"                                         ====$$#$$###...@@@@@%@++*&**++@.%##$%...%$$$$=======                                   ",
"                                         ===$$$##$$##%%...@@+%%++*****+@.%%.@..%$$$$$$==$====                                   ",
"                                        ====$$##%#$$##%....@@%%+***++*++++@@..%$$=$$$$$$$====                                   ",
"                                        ====$#####$$$#%%..%%##%+********&+@..$$$$$$$$$$$$$===                                   ",
"                                        ====$#####$$$$#%%%%##@*)))))))&*+@.$$$$$==$$$$$$$$===                                   ",
"                                       $===$$#####$$$=$#%%%#@+)))))&*+@@.####$$$$===$$$$$$===                                   ",
"                                       $==$$$#####$$$=$##%%##@++@@@@@%%%%..#$$$$$$$===$$$====                                   ",
"                                       $==$$$####$$$==$##..%.#.......####%###$$$$$$==========#                                  ",
"                                      $$==$$$$###$$=$$##%.@....@@*+@@...%%.%%##$$$$==========#                                  ",
"                                     $$===$$$$$$$$==$##%+@.%..@@@*+@@.@....%##$$$$$$$$====$==#                                  ",
"                                     $$==$$$$$$$$=$$##.*@.%..@@@+**+@@.@..%%%%#$$=#$$$=======#                                  ",
"                                     $$==$$$$$$==$###.*..%%.@@@++**++@@@@@.%###$$$$#$$#======#                                  ",
"                                     $$==$$$====$##..+.%%%.@..@++**++++@...%%%###$$$$$#$=====#                                  ",
"                                     $$#$$=====$##.@@.%%#%...@@+++++@@@@@..%..%###$$$$#$$$===#                                  ",
"                                    #.%##$$$$$##..@..%%%%%..@@@@@++@@@.@@......%##$$$$#$$$===#                                  ",
"                                   #%.%##$####%.....%##%%%.@..@@@@@@.@.@..@@..%%%%%$$$##$$==#%#                                 ",
"                                   #%..######%%...%%##%%........@@@..@.@@@@...%%%.%%#$$$$$=..%#                                 ",
"                                   $%..@.####%%%%%%%%%%%...%..%.@...%.......%%%%%%%%%####.@..%$                                 ",
"                                    #%.@++@@....%%%.%%.%%%%..%%..@..%%....%%%%%%......@@@@@.%#                                  ",
"                                     #..@++**+++++++@@@@....................@@@@.@@@+**++@..@                                   ",
"                                        .@@@++**&&&&&********+*+++++++*+****+++*****++@@@.                                      ",
"                                            .@@@@+++*&&&)&&)&)))&&)&&&&&&******++@@@.@                                          ",
"                                                  @@@@++++++**********++++++@@@@                                                "};
