/* XPM */
static char * C:\Users\nakam\Desktop\oilbarrel1_xpm[] = {
"128 128 16 1",
" 	c #000000",
".	c #231B17",
"+	c #28211B",
"@	c #2E261F",
"#	c #3A3226",
"$	c #4F4941",
"%	c #5E594F",
"&	c #766E5D",
"*	c #1D1313",
"=	c #170F0F",
"-	c #303030",
";	c #434343",
">	c #565656",
",	c #6A6A6A",
"'	c #3A3A3A",
")	c #868686",
"                                                                                                                                ",
"                                                                                                                                ",
"                                                                                                                                ",
"                                                                                                                                ",
"                                                                                                                                ",
"                                                                                                                                ",
"                                                                                                                                ",
"                                                                                                                                ",
"                                                                                                                                ",
"                                                                                                                                ",
"                                                                                                                                ",
"                                                                                                                                ",
"                                                                                                                                ",
"                                                                                                                                ",
"                                                                                                                                ",
"                                                                                                                                ",
"                                                                                                                                ",
"                                                                                                                                ",
"                                                                                                                                ",
"                                                                                                                                ",
"                                                                                                                                ",
"                                                                                                                                ",
"                                                                                                                                ",
"                                                                                                                                ",
"                                                                                                                                ",
"                                                                                                                                ",
"                                                                                                                                ",
"                                                                                                                                ",
"                                                                                                                                ",
"                                                                                                                                ",
"                                                                                                                                ",
"                                                                                                                                ",
"                                                                                                                                ",
"                                                                                                                                ",
"                                                                                                                                ",
"                                                                                                                                ",
"                                                                                                                                ",
"                                                                                                                                ",
"                                                                                                                                ",
"                                                                                                                                ",
"                                                                                                                                ",
"                                                                                                                                ",
"                                                                                                                                ",
"                                                                                                                                ",
"                                                                                                                                ",
"                                                                                                                                ",
"                                                                                                                                ",
"                                                                                                                                ",
"                                                                                                                                ",
"                                                                                                                                ",
"                                                         .+++@##$$$$$$$$$$##@@@..++..                                           ",
"                                                    .+++@#$%&&%%%%%%%%%$$$$$$#######@.**.                                       ",
"                                               ++++++$$%&&%$$#@@@@@@@+++++++++++++#######@@==                                   ",
"                                            +++@@#$$$#@@@@+++++++++++++++++++++.++++....++#@@=*                                 ",
"                                        ++++.+###@@@@++++++++++++@@@@@@@@@@@@@@+@@@@+++++..+@+*                                 ",
"                                      +++*.###@@+++++++++++@@@@@@@@@@@@@@@@@......@@@@@@++.*+.*                                 ",
"                                    ++=*+##@@+++@@@@@@@@@@@@@@@@@#@@@@@@@..-;>>>>;;*@@@@++*=+@*                                 ",
"                                   ===++@++++@@@@@@@@@@@@@@##########@@@@-;>>,,,>'=@@@##@*.@#+                                  ",
"                                  ===++@++@@@@@@@@+@@@@@#########$$####@@=';>>>;==@###@++###@*                                  ",
"                                 =+==+@++@@@@@@@@@#########$$$$$$$$$$$$##@======##@++.@@##++=                                   ",
"                                 *.=*@++@@@@@@#####$$$$$$$$%%%%%%&&&&%%%$$$#####.+++#$$$++===                                   ",
"                                 *@+=**++#######$$$$$$$$$%%&&&&&&&$$$$$##@@+++**@##%$$+++*===                                   ",
"                                 *+#@.***..+@@######$$%%&&&%%$$$###@@..*****#$%&%$#+@+++.*===                                   ",
"                                  =@####@@.**..@@@@######@@@+.*......@@$%&&&&&&%####@++..**==                                   ",
"                                   =++##$$$##@..........*.+++@@##$$%&)))&%%$$###$##@#@++..*==                                   ",
"                                    =.@@##$$%%$%%$$$$$$%%%%&)))))))&%%%%$$$$##$$##@@@@+++.*==                                   ",
"                                    ==.@@###$#$%%%&&&&&&&&%%%%%%&&&&&&&%%%%%$$#####@@@++..*==                                   ",
"                                     =..+@@#$$$$$$$$%%&&&&%&)))))))&&&%%%%%$$###@@@@@+++.**==                                   ",
"                                     ==.+++@####$$$%%&&&&&&&&))))&&&&&&%%%$$$#@@@@+++++.***==                                   ",
"                                     ===..+@@####$$$$%%%%%&&)&)))&&&&&%%%$$$##@@@@@@++...**==                                   ",
"                                     ====..+@@##$$$$%%%$%%%)&)))))&&%%%$$$#@##@@++++..***.*==                                   ",
"                                      ===..+@@###$$$%$$$%%&&&&&))&&%%$$$#####@@+++.+..*.***==                                   ",
"                                      ====..+@@###$$%$$$%&&%&&)&&&%%%$$$##@@@@@@@+.+.*..*====                                   ",
"                                      ===*=*++@###$$%$$$%&&%&)&&&%%%$$$$##@+@@@@+.+....**====                                   ",
"                                     ======*++@@###$$$$$%&%%&&&&%%%%$$#$#@@+@+@++....***=====                                   ",
"                                     =.====*.++@####$$$$$%%%&&%%%%$$$####@@+++@+....****=====                                   ",
"                                     =@.==***++@@####$#$$%$%&&%%%$$####@#@@@+@++...***=**====.                                  ",
"                                      =@..=**.++@@###$#$$%$%&&%%%$####@@@#@@+++....**=====*=.++                                 ",
"                                      *....=*..+++@####$$%$%&&%%%$#$##@+@@@+++....***=****.+@@.                                 ",
"                                       **..++*.++++####$%$$$%&%%$$$##@@@++++++.******++@#@@+.+                                  ",
"                                        =*..@@..+++###$$%$$$%%%%$$$##@@@@@@@@@@+++@#####@+.==                                   ",
"                                        .==*.@##.+@@@##$$%%%%%&$$$###@@@@#@@@@#######+.======                                   ",
"                                         *==**+$$$#@@@@#$$$$$$$$$$$######$$$$$###@+.=========                                   ",
"                                         *=*=**++@$$$$$$$$$$$$$$$%%%%%%%%%%$#@+.=============                                   ",
"                                         .==*=***..+@#%%%%%&&&&&&&%%%%%%$#@+====********..===                                   ",
"                                          +*****...+++@@##$$$$$###@@@@@@...***********...*===                                   ",
"                                          ++*****...@#@++++++++++++++++++++.......***.+***===                                   ",
"                                          *@+..***...@##$$&%##@@@@++++++++........**+++***===                                   ",
"                                          .+@+...*..*+@#$$&%$#@@@@++++++++.....**+++.****====                                   ",
"                                          *.+@@...*...+@##&&%##@@@@++++++++...++@@@*.***=====                                   ",
"                                          **+@#@.......@@#$&%%%@@@@@++++++@@####...*****=====                                   ",
"                                          **.+@##......+@@#&&%%%@@@@@@@##$$$@@...******======                                   ",
"                                         =**.+@#$#......+@#$)%%%%$%&&&%%%##..*********====@**                                   ",
"                                         ==*..+@#%#.....+@@$&)%&&&&&%#++..**********===..@**=                                   ",
"                                        **=*...@@#%#....+@@#$)&&%%%#@@+.***********==..@@..*=                                   ",
"                                       ====**..+@@#&#....@@#$&)%$$$%%$$@**.++++++@@@@@@+..**=                                   ",
"                                      =.+==**...+@@#&@...@@#%&)$###@@@#$@..+@@@@@@@@@+++..**=                                   ",
"                                      =+#+*****..+@@#%@..@@#$&)#####@@+@#@..+@@@@@@@++....**=                                   ",
"                                      =.@@******.++##$+..@#$%&$##@@@@++@#@..+@@@@++++....*===                                   ",
"                                      =**+++*****.++###..@@$$&$####@@@++@#...+@@@++++....**==.                                  ",
"                                       =*=.+++.****++##..@@$&&$$###@@@+++#@...+@+++++...**==*@.                                 ",
"                                       ==*=*++++***.+###.@@$&%$$$##@@@++++#+...+++++....**=*@#.                                 ",
"                                      ====*=**++@.**.+##.@@$&%$$$###@@@++++@+...++++.....@@##+                                  ",
"                                      ==****===.@@@.*+##.@#$&%%$$###@@@+++++@+....+...@@@@@..                                   ",
"                                      ====*.=*==.@###.@#+@##&%%%$$###@@+++++@++...@@@@@@@..==                                   ",
"                                      ====**.**==*.#$$@#+@##&&%%$$$$##@+++@@@#####@@@+**=*===                                   ",
"                                      =====*....**=..$&$@@##)&%%%%%$$$$$$$%$$$$#@@+****==*===                                   ",
"                                     *======**..*****.#&&$$&)&%%%%%%%%%%&&%$$#@********==*===                                   ",
"                                     *.======**..*****.#&)%))&%%%%))))&%$$@..**.....******===                                   ",
"                                     *.*======*..******.#&)))))))))&&$#@+++++++......***=*===                                   ",
"                                     *.**=*===...*****++.#$%&)))&$$$@@@@@@+++++.+++.***=**===                                   ",
"                                     **.*****=...*.**++@@@+@####@@@@##@@@@@++++.+...*..=**===                                   ",
"                                     *+.****.....*.+++@@#####$$$$#####@@@@@++++++.....*=**===                                   ",
"                                     *++****..+..*+++@@@@####$$$$#######@@@++@+++..+..*=**===                                   ",
"                                     .++******@+..++@@@@@#####$$$$######@@@+@@+++.+@******===                                   ",
"                                     *@+.****==@.++@@@@@@##$##$$$#####$##@@+@@+++.@===****===                                   ",
"                                     *@+.***.==@++@@@@@@@##$##$$$$####$##@@+@@++++@==.****===                                   ",
"                                     *@+.**..==@++@@@@@@@#$$##$$$$$###$$#@@@@@@+++@==..***===                                   ",
"                                     *@+.**..=+@+@@@@#@@##$$##$$$$$###$$##@@#@@@++@+=..***===                                   ",
"                                    .@+..**...@++@@@@#@@##$$#$$$$$$###$$##@@#@@@@++@...***===.                                  ",
"                                   .+@+..*....++@@@@##@@##$$$$$$$$$$$$$$##@@##@@@@++....**==.+.                                 ",
"                                   .+@@.......+@@@@@##@###$$$$$$$$$$$$$$###@##@@@@@+.....*=@@+.                                 ",
"                                   .+@@#@....+@@@@@##@##$##$$$$$$$$$$$$##$##@##@@@@@+....@#@@+*                                 ",
"                                    ++@#$$##@@@@@@#####$$$#$$%$$$$$$$$$#$$$#####@@@@@@##$##@@@                                  ",
"                                     ++@#$$%%$$$$$$$$$$$$$$$%%$$$$$$$$$$$$$$$#######$%%$$#@@#                                   ",
"                                        @###$$%%&&&&&%%%%%%%%%%%%%%%%%%%%%%%%%%%%%%%$$###@                                      ",
"                                            @####$$$%&&&)&&)&)))&&)&&&&&&&&%%$$$$####@                                          ",
"                                                  ###$$$$$$$%%%%%%%%%%$$$$$$####                                                "};
